<?xml version="1.0" encoding="UTF-8"?>
<svg id="Layer_2" data-name="Layer 2" xmlns="http://www.w3.org/2000/svg" viewBox="0 0 576.73 321.66">
  <defs>
    <style>
      .cls-1 {
        fill-rule: evenodd;
      }
    </style>
  </defs>
  <g id="_Слой_1" data-name="Слой 1">
    <g>
      <polygon class="cls-1" points="300 123.71 285.72 148.46 271.43 173.2 257.15 197.95 171.44 197.95 185.73 222.69 200.01 247.44 214.29 272.17 200.01 296.91 185.72 321.66 171.43 296.91 157.15 272.18 142.87 247.44 114.29 197.95 85.72 197.95 71.44 222.69 57.15 247.44 0 247.44 14.29 222.68 28.58 197.95 42.86 173.2 57.15 148.46 228.58 148.46 242.86 123.72 228.57 98.97 214.29 74.23 200.01 49.49 171.43 49.49 157.15 74.22 142.87 98.97 85.72 98.97 100.01 74.22 114.29 49.49 85.73 49.49 57.15 0 228.58 0 242.87 24.74 257.15 49.49 271.44 74.23 285.72 98.97 300 123.71"/>
      <polygon class="cls-1" points="353.58 123.71 335.72 154.64 326.79 170.1 317.87 185.57 300.01 216.49 282.15 247.42 246.43 247.42 264.29 216.49 282.15 185.57 300.01 154.64 308.94 139.18 317.87 123.71 353.58 123.71"/>
      <path class="cls-1" d="M460.7,123.71h-89.27l-8.93,15.47-8.93,15.47-8.92,15.46-17.86,30.93-8.92,15.46-17.86,30.93h107.13l8.92-15.47,8.93-15.47,8.93-15.47,8.93-15.46,8.93-15.47,8.92-15.46,8.93-15.47-8.93-15.47ZM353.55,216.7l8.98-15.56,8.99-15.57,8.98-15.56h0s8.99-15.57,8.99-15.57h35.95l-8.98,15.56-8.99,15.57-8.99,15.57-8.99,15.56h-35.94Z"/>
      <polygon class="cls-1" points="576.73 170.1 567.8 185.57 558.87 201.03 549.95 216.49 532.09 247.42 496.5 247.42 505.45 231.92 514.4 216.42 523.34 200.93 523.34 200.92 532.29 185.43 541.24 169.93 532.29 154.44 514.39 154.44 505.45 169.93 496.5 185.43 487.55 200.93 478.61 216.42 460.71 247.42 424.95 247.42 433.88 231.96 442.81 216.49 451.73 201.03 469.6 170.1 478.52 154.64 487.45 139.18 478.53 123.71 549.94 123.71 558.87 139.18 567.8 154.64 576.73 170.1"/>
    </g>
  </g>
</svg>